<mxfile host="app.diagrams.net" modified="2022-12-12T14:33:36.443Z" agent="5.0 (Windows NT 10.0; Win64; x64) AppleWebKit/537.36 (KHTML, like Gecko) Chrome/108.0.0.0 Safari/537.36" etag="v4EX0f1f1MwD0kqbZmy4" version="20.6.2" type="github">
  <diagram id="kgpKYQtTHZ0yAKxKKP6v" name="Page-1">
    <mxGraphModel dx="942" dy="634" grid="1" gridSize="10" guides="1" tooltips="1" connect="1" arrows="1" fold="1" page="1" pageScale="1" pageWidth="850" pageHeight="1100" math="0" shadow="0">
      <root>
        <mxCell id="0" />
        <mxCell id="1" parent="0" />
        <mxCell id="b2fjztfuZZcdANy6v_ON-1" value="SensorService" style="shape=umlLifeline;perimeter=lifelinePerimeter;whiteSpace=wrap;html=1;container=1;collapsible=0;recursiveResize=0;outlineConnect=0;" vertex="1" parent="1">
          <mxGeometry x="300" y="40" width="100" height="1000" as="geometry" />
        </mxCell>
        <mxCell id="b2fjztfuZZcdANy6v_ON-11" value="" style="html=1;points=[];perimeter=orthogonalPerimeter;" vertex="1" parent="b2fjztfuZZcdANy6v_ON-1">
          <mxGeometry x="45" y="100" width="10" height="80" as="geometry" />
        </mxCell>
        <mxCell id="b2fjztfuZZcdANy6v_ON-14" value="" style="html=1;points=[];perimeter=orthogonalPerimeter;" vertex="1" parent="b2fjztfuZZcdANy6v_ON-1">
          <mxGeometry x="45" y="190" width="10" height="130" as="geometry" />
        </mxCell>
        <mxCell id="b2fjztfuZZcdANy6v_ON-15" value="Vérifie s&#39;il n&#39;en existe pas&amp;nbsp;&lt;br&gt;un au meme endroit" style="edgeStyle=orthogonalEdgeStyle;html=1;align=left;spacingLeft=2;endArrow=block;rounded=0;entryX=1;entryY=0;" edge="1" target="b2fjztfuZZcdANy6v_ON-14" parent="b2fjztfuZZcdANy6v_ON-1">
          <mxGeometry relative="1" as="geometry">
            <mxPoint x="50" y="170" as="sourcePoint" />
            <Array as="points">
              <mxPoint x="80" y="170" />
            </Array>
          </mxGeometry>
        </mxCell>
        <mxCell id="b2fjztfuZZcdANy6v_ON-29" value="" style="html=1;points=[];perimeter=orthogonalPerimeter;" vertex="1" parent="b2fjztfuZZcdANy6v_ON-1">
          <mxGeometry x="45" y="620" width="10" height="200" as="geometry" />
        </mxCell>
        <mxCell id="b2fjztfuZZcdANy6v_ON-2" value="FireService" style="shape=umlLifeline;perimeter=lifelinePerimeter;whiteSpace=wrap;html=1;container=1;collapsible=0;recursiveResize=0;outlineConnect=0;" vertex="1" parent="1">
          <mxGeometry x="460" y="40" width="110" height="1000" as="geometry" />
        </mxCell>
        <mxCell id="b2fjztfuZZcdANy6v_ON-23" value="" style="html=1;points=[];perimeter=orthogonalPerimeter;" vertex="1" parent="b2fjztfuZZcdANy6v_ON-2">
          <mxGeometry x="45" y="460" width="10" height="180" as="geometry" />
        </mxCell>
        <mxCell id="b2fjztfuZZcdANy6v_ON-3" value="AlertService" style="shape=umlLifeline;perimeter=lifelinePerimeter;whiteSpace=wrap;html=1;container=1;collapsible=0;recursiveResize=0;outlineConnect=0;" vertex="1" parent="1">
          <mxGeometry x="610" y="40" width="100" height="1000" as="geometry" />
        </mxCell>
        <mxCell id="b2fjztfuZZcdANy6v_ON-32" value="" style="html=1;points=[];perimeter=orthogonalPerimeter;" vertex="1" parent="b2fjztfuZZcdANy6v_ON-3">
          <mxGeometry x="45" y="680" width="10" height="120" as="geometry" />
        </mxCell>
        <mxCell id="b2fjztfuZZcdANy6v_ON-4" value="BDD" style="shape=umlLifeline;perimeter=lifelinePerimeter;whiteSpace=wrap;html=1;container=1;collapsible=0;recursiveResize=0;outlineConnect=0;" vertex="1" parent="1">
          <mxGeometry x="750" y="40" width="100" height="1000" as="geometry" />
        </mxCell>
        <mxCell id="b2fjztfuZZcdANy6v_ON-16" value="" style="html=1;points=[];perimeter=orthogonalPerimeter;" vertex="1" parent="b2fjztfuZZcdANy6v_ON-4">
          <mxGeometry x="45" y="220" width="10" height="80" as="geometry" />
        </mxCell>
        <mxCell id="b2fjztfuZZcdANy6v_ON-26" value="" style="html=1;points=[];perimeter=orthogonalPerimeter;" vertex="1" parent="b2fjztfuZZcdANy6v_ON-4">
          <mxGeometry x="45" y="470" width="10" height="80" as="geometry" />
        </mxCell>
        <mxCell id="b2fjztfuZZcdANy6v_ON-39" value="" style="html=1;points=[];perimeter=orthogonalPerimeter;" vertex="1" parent="b2fjztfuZZcdANy6v_ON-4">
          <mxGeometry x="45" y="700" width="10" height="80" as="geometry" />
        </mxCell>
        <mxCell id="b2fjztfuZZcdANy6v_ON-6" value="" style="shape=umlLifeline;participant=umlActor;perimeter=lifelinePerimeter;whiteSpace=wrap;html=1;container=1;collapsible=0;recursiveResize=0;verticalAlign=top;spacingTop=36;outlineConnect=0;" vertex="1" parent="1">
          <mxGeometry x="40" y="40" width="20" height="1000" as="geometry" />
        </mxCell>
        <mxCell id="b2fjztfuZZcdANy6v_ON-7" value="Simulator View" style="shape=umlLifeline;perimeter=lifelinePerimeter;whiteSpace=wrap;html=1;container=1;collapsible=0;recursiveResize=0;outlineConnect=0;" vertex="1" parent="1">
          <mxGeometry x="150" y="40" width="100" height="1000" as="geometry" />
        </mxCell>
        <mxCell id="b2fjztfuZZcdANy6v_ON-8" value="" style="html=1;points=[];perimeter=orthogonalPerimeter;" vertex="1" parent="b2fjztfuZZcdANy6v_ON-7">
          <mxGeometry x="45" y="80" width="10" height="320" as="geometry" />
        </mxCell>
        <mxCell id="b2fjztfuZZcdANy6v_ON-20" value="" style="html=1;points=[];perimeter=orthogonalPerimeter;" vertex="1" parent="b2fjztfuZZcdANy6v_ON-7">
          <mxGeometry x="45" y="440" width="10" height="180" as="geometry" />
        </mxCell>
        <mxCell id="b2fjztfuZZcdANy6v_ON-36" value="" style="html=1;points=[];perimeter=orthogonalPerimeter;" vertex="1" parent="b2fjztfuZZcdANy6v_ON-7">
          <mxGeometry x="45" y="800" width="10" height="80" as="geometry" />
        </mxCell>
        <mxCell id="b2fjztfuZZcdANy6v_ON-9" value="Selectionne un endroit&amp;nbsp;&lt;br&gt;pour placer un capteur" style="html=1;verticalAlign=bottom;endArrow=block;entryX=0;entryY=0;rounded=0;" edge="1" target="b2fjztfuZZcdANy6v_ON-8" parent="1" source="b2fjztfuZZcdANy6v_ON-6">
          <mxGeometry relative="1" as="geometry">
            <mxPoint x="125" y="120" as="sourcePoint" />
          </mxGeometry>
        </mxCell>
        <mxCell id="b2fjztfuZZcdANy6v_ON-10" value="Affichage du nouveau&lt;br&gt;capteur" style="html=1;verticalAlign=bottom;endArrow=open;dashed=1;endSize=8;exitX=0;exitY=0.95;rounded=0;" edge="1" source="b2fjztfuZZcdANy6v_ON-8" parent="1" target="b2fjztfuZZcdANy6v_ON-6">
          <mxGeometry relative="1" as="geometry">
            <mxPoint x="125" y="196" as="targetPoint" />
          </mxGeometry>
        </mxCell>
        <mxCell id="b2fjztfuZZcdANy6v_ON-12" value="Demande la création d&#39;un&amp;nbsp;&lt;br&gt;capteur" style="html=1;verticalAlign=bottom;endArrow=block;entryX=0;entryY=0;rounded=0;" edge="1" target="b2fjztfuZZcdANy6v_ON-11" parent="1" source="b2fjztfuZZcdANy6v_ON-7">
          <mxGeometry relative="1" as="geometry">
            <mxPoint x="275" y="140" as="sourcePoint" />
          </mxGeometry>
        </mxCell>
        <mxCell id="b2fjztfuZZcdANy6v_ON-17" value="Enregistrement en BDD du capteur" style="html=1;verticalAlign=bottom;endArrow=block;entryX=0;entryY=0;rounded=0;" edge="1" target="b2fjztfuZZcdANy6v_ON-16" parent="1" source="b2fjztfuZZcdANy6v_ON-1">
          <mxGeometry relative="1" as="geometry">
            <mxPoint x="725" y="260" as="sourcePoint" />
          </mxGeometry>
        </mxCell>
        <mxCell id="b2fjztfuZZcdANy6v_ON-18" value="retour et validation de l&#39;ajout" style="html=1;verticalAlign=bottom;endArrow=open;dashed=1;endSize=8;exitX=0;exitY=0.95;rounded=0;" edge="1" source="b2fjztfuZZcdANy6v_ON-16" parent="1" target="b2fjztfuZZcdANy6v_ON-1">
          <mxGeometry relative="1" as="geometry">
            <mxPoint x="725" y="336" as="targetPoint" />
          </mxGeometry>
        </mxCell>
        <mxCell id="b2fjztfuZZcdANy6v_ON-19" value="retour et validation" style="html=1;verticalAlign=bottom;endArrow=open;dashed=1;endSize=8;rounded=0;" edge="1" parent="1" target="b2fjztfuZZcdANy6v_ON-7">
          <mxGeometry relative="1" as="geometry">
            <mxPoint x="350" y="354.5" as="sourcePoint" />
            <mxPoint x="270" y="354.5" as="targetPoint" />
          </mxGeometry>
        </mxCell>
        <mxCell id="b2fjztfuZZcdANy6v_ON-21" value="Interagit pour créer un feu" style="html=1;verticalAlign=bottom;endArrow=block;entryX=0;entryY=0;rounded=0;" edge="1" target="b2fjztfuZZcdANy6v_ON-20" parent="1" source="b2fjztfuZZcdANy6v_ON-6">
          <mxGeometry relative="1" as="geometry">
            <mxPoint x="125" y="480" as="sourcePoint" />
          </mxGeometry>
        </mxCell>
        <mxCell id="b2fjztfuZZcdANy6v_ON-22" value="Affiche le feu à l&#39;écran" style="html=1;verticalAlign=bottom;endArrow=open;dashed=1;endSize=8;exitX=0;exitY=0.95;rounded=0;" edge="1" source="b2fjztfuZZcdANy6v_ON-20" parent="1" target="b2fjztfuZZcdANy6v_ON-6">
          <mxGeometry relative="1" as="geometry">
            <mxPoint x="125" y="556" as="targetPoint" />
          </mxGeometry>
        </mxCell>
        <mxCell id="b2fjztfuZZcdANy6v_ON-24" value="Demande la création du feu&amp;nbsp;" style="html=1;verticalAlign=bottom;endArrow=block;entryX=0;entryY=0;rounded=0;" edge="1" target="b2fjztfuZZcdANy6v_ON-23" parent="1" source="b2fjztfuZZcdANy6v_ON-7">
          <mxGeometry relative="1" as="geometry">
            <mxPoint x="435" y="500" as="sourcePoint" />
          </mxGeometry>
        </mxCell>
        <mxCell id="b2fjztfuZZcdANy6v_ON-25" value="confirme l&#39;ajout d&#39;un feu" style="html=1;verticalAlign=bottom;endArrow=open;dashed=1;endSize=8;rounded=0;entryX=0.5;entryY=0.833;entryDx=0;entryDy=0;entryPerimeter=0;" edge="1" source="b2fjztfuZZcdANy6v_ON-2" parent="1" target="b2fjztfuZZcdANy6v_ON-20">
          <mxGeometry relative="1" as="geometry">
            <mxPoint x="435" y="576" as="targetPoint" />
            <mxPoint x="500" y="650" as="sourcePoint" />
          </mxGeometry>
        </mxCell>
        <mxCell id="b2fjztfuZZcdANy6v_ON-27" value="Enregistre un feu en BDD" style="html=1;verticalAlign=bottom;endArrow=block;entryX=0;entryY=0;rounded=0;" edge="1" target="b2fjztfuZZcdANy6v_ON-26" parent="1" source="b2fjztfuZZcdANy6v_ON-2">
          <mxGeometry relative="1" as="geometry">
            <mxPoint x="725" y="500" as="sourcePoint" />
          </mxGeometry>
        </mxCell>
        <mxCell id="b2fjztfuZZcdANy6v_ON-28" value="retour de la validation" style="html=1;verticalAlign=bottom;endArrow=open;dashed=1;endSize=8;exitX=0;exitY=0.95;rounded=0;" edge="1" source="b2fjztfuZZcdANy6v_ON-26" parent="1" target="b2fjztfuZZcdANy6v_ON-2">
          <mxGeometry relative="1" as="geometry">
            <mxPoint x="725" y="576" as="targetPoint" />
          </mxGeometry>
        </mxCell>
        <mxCell id="b2fjztfuZZcdANy6v_ON-30" value="Appel la vérification des&amp;nbsp;&lt;br&gt;capteurs" style="html=1;verticalAlign=bottom;endArrow=block;entryX=0;entryY=0;rounded=0;" edge="1" target="b2fjztfuZZcdANy6v_ON-29" parent="1" source="b2fjztfuZZcdANy6v_ON-23">
          <mxGeometry relative="1" as="geometry">
            <mxPoint x="585" y="620" as="sourcePoint" />
          </mxGeometry>
        </mxCell>
        <mxCell id="b2fjztfuZZcdANy6v_ON-31" value="Retourne&amp;nbsp;&lt;br&gt;une nouvelle alerte" style="html=1;verticalAlign=bottom;endArrow=open;dashed=1;endSize=8;exitX=0;exitY=0.95;rounded=0;" edge="1" source="b2fjztfuZZcdANy6v_ON-29" parent="1" target="b2fjztfuZZcdANy6v_ON-7">
          <mxGeometry relative="1" as="geometry">
            <mxPoint x="585" y="696" as="targetPoint" />
          </mxGeometry>
        </mxCell>
        <mxCell id="b2fjztfuZZcdANy6v_ON-33" value="Demande l&#39;ajout d&#39;une alerte si besoin" style="html=1;verticalAlign=bottom;endArrow=block;entryX=0;entryY=0;rounded=0;" edge="1" target="b2fjztfuZZcdANy6v_ON-32" parent="1" source="b2fjztfuZZcdANy6v_ON-1">
          <mxGeometry relative="1" as="geometry">
            <mxPoint x="725" y="640" as="sourcePoint" />
          </mxGeometry>
        </mxCell>
        <mxCell id="b2fjztfuZZcdANy6v_ON-34" value="Validation de l&#39;enregistrement&amp;nbsp;" style="html=1;verticalAlign=bottom;endArrow=open;dashed=1;endSize=8;exitX=0;exitY=0.95;rounded=0;" edge="1" source="b2fjztfuZZcdANy6v_ON-32" parent="1" target="b2fjztfuZZcdANy6v_ON-1">
          <mxGeometry relative="1" as="geometry">
            <mxPoint x="725" y="716" as="targetPoint" />
          </mxGeometry>
        </mxCell>
        <mxCell id="b2fjztfuZZcdANy6v_ON-38" value="Affiche l&#39;alerte à l&#39;écran" style="html=1;verticalAlign=bottom;endArrow=open;dashed=1;endSize=8;exitX=0;exitY=0.95;rounded=0;" edge="1" source="b2fjztfuZZcdANy6v_ON-36" parent="1" target="b2fjztfuZZcdANy6v_ON-6">
          <mxGeometry relative="1" as="geometry">
            <mxPoint x="125" y="906" as="targetPoint" />
          </mxGeometry>
        </mxCell>
        <mxCell id="b2fjztfuZZcdANy6v_ON-40" value="Enregistrement de&amp;nbsp;&lt;br&gt;l&#39;alerte" style="html=1;verticalAlign=bottom;endArrow=block;entryX=0;entryY=0;rounded=0;" edge="1" target="b2fjztfuZZcdANy6v_ON-39" parent="1" source="b2fjztfuZZcdANy6v_ON-3">
          <mxGeometry relative="1" as="geometry">
            <mxPoint x="725" y="710" as="sourcePoint" />
          </mxGeometry>
        </mxCell>
        <mxCell id="b2fjztfuZZcdANy6v_ON-41" value="Validation de&amp;nbsp;&lt;br&gt;l&#39;enregistrement" style="html=1;verticalAlign=bottom;endArrow=open;dashed=1;endSize=8;exitX=0;exitY=0.95;rounded=0;" edge="1" source="b2fjztfuZZcdANy6v_ON-39" parent="1" target="b2fjztfuZZcdANy6v_ON-3">
          <mxGeometry relative="1" as="geometry">
            <mxPoint x="725" y="786" as="targetPoint" />
          </mxGeometry>
        </mxCell>
      </root>
    </mxGraphModel>
  </diagram>
</mxfile>
